<svg xmlns="http://www.w3.org/2000/svg" width="17.481" height="17.12" viewBox="0 0 17.481 17.12"><defs><style>.a{fill:#ffdf40;}.b{fill:#ffbe40;}.c{fill:#ff9f40;}</style></defs><g transform="translate(-9)"><path class="a" d="M189.534,0a8.56,8.56,0,1,0,8.586,8.586A8.589,8.589,0,0,0,189.534,0Zm0,13.8c-2.184,0-5.051-2.611-5.051-5.218s3.406-5.208,5.051-5.208,5.443,3.083,5.443,5.208S191.718,13.8,189.534,13.8Z" transform="translate(-172)"/><path class="b" d="M354.892,8.586A8.791,8.791,0,0,0,346,0V5.295l3.659,3.387L346,12.334V17.12A8.748,8.748,0,0,0,354.892,8.586Z" transform="translate(-328.411)"/><g transform="translate(-0.134)"><path class="b" d="M279.917,92.826l-5.224-5.106a1.251,1.251,0,0,0-1.741,0l-5.224,5.106a1.184,1.184,0,0,0,0,1.7l5.224,5.106a1.251,1.251,0,0,0,1.741,0l5.224-5.106A1.184,1.184,0,0,0,279.917,92.826Zm-6.094,4.255-3.483-3.4,3.483-3.4,3.483,3.4Z" transform="translate(-256.234 -84.848)"/><path class="c" d="M352.094,94.527a1.184,1.184,0,0,0,0-1.7l-5.224-5.106a1.242,1.242,0,0,0-.871-.353v2.906l3.483,3.4L346,97.08v2.906a1.242,1.242,0,0,0,.871-.353Z" transform="translate(-328.411 -84.847)"/></g></g></svg>