<svg xmlns="http://www.w3.org/2000/svg" width="16" height="16" viewBox="0 0 16 16"><defs><style>.a{fill:#ffc839;}.b{fill:#fcf9f0;}.c{fill:#2d3c6b;}.d{fill:#ff9100;}</style></defs><g transform="translate(-1.75 -1.75)"><path class="a" d="M17.75,9.75a8.024,8.024,0,0,1-.194,1.759,7.919,7.919,0,0,1-1.044,2.515,8.01,8.01,0,0,1-2.488,2.488,7.919,7.919,0,0,1-2.515,1.044,8.072,8.072,0,0,1-3.519,0,7.919,7.919,0,0,1-2.515-1.044,8.01,8.01,0,0,1-2.488-2.488,7.919,7.919,0,0,1-1.044-2.515,8,8,0,0,1,15.612-3.52A8.026,8.026,0,0,1,17.75,9.75Z" transform="translate(0 0)"/><circle class="b" cx="4.896" cy="4.896" r="4.896" transform="translate(4.854 4.854)"/><path class="c" d="M50.153,46.067a1.3,1.3,0,0,0,0-1.844l-1.844-1.844-1.844,1.844A1.3,1.3,0,0,0,47.733,46.4a3.282,3.282,0,0,1-.472,1.347h2.1a3.28,3.28,0,0,1-.472-1.347A1.3,1.3,0,0,0,50.153,46.067Z" transform="translate(-38.559 -35.314)"/><g transform="translate(1.75 1.75)"><path class="d" d="M53.71,1.937l-.422,1.551H50.732L50.31,1.937A7.8,7.8,0,0,1,53.71,1.937Z" transform="translate(-44.01 -1.75)"/><path class="d" d="M53.71,113.792a7.8,7.8,0,0,1-3.4,0l.422-1.552h2.556Z" transform="translate(-44.01 -97.98)"/><path class="d" d="M94.041,13.775l-1.395.8L90.84,12.765l.8-1.395A7.734,7.734,0,0,1,94.041,13.775Z" transform="translate(-79.237 -10.175)"/><path class="d" d="M14.581,92.647l-.8,1.395a7.739,7.739,0,0,1-2.4-2.4l1.394-.8Z" transform="translate(-10.184 -79.237)"/><path class="d" d="M113.988,52a7.752,7.752,0,0,1-.188,1.7l-1.551-.422V50.723L113.8,50.3A7.757,7.757,0,0,1,113.988,52Z" transform="translate(-97.988 -44.001)"/><path class="d" d="M3.488,50.723v2.556L1.938,53.7a7.806,7.806,0,0,1,0-3.4Z" transform="translate(-1.75 -44.001)"/><path class="d" d="M94.041,91.637a7.739,7.739,0,0,1-2.4,2.4l-.8-1.395,1.807-1.807Z" transform="translate(-79.237 -79.237)"/><path class="d" d="M14.581,12.764l-1.807,1.808-1.395-.8a7.734,7.734,0,0,1,2.405-2.405Z" transform="translate(-10.184 -10.175)"/></g></g></svg>