<svg xmlns="http://www.w3.org/2000/svg" xmlns:xlink="http://www.w3.org/1999/xlink" width="100" height="104" viewBox="0 0 100 104"><defs><style>.a{fill:url(#a);}.b{fill:#0a001b;}.c{fill:url(#b);}</style><linearGradient id="a" x1="0.5" x2="0.5" y2="1" gradientUnits="objectBoundingBox"><stop offset="0" stop-color="#ae8625"/><stop offset="0.305" stop-color="#f7ef8a"/><stop offset="0.665" stop-color="#d2ac47"/><stop offset="1" stop-color="#edc967"/></linearGradient><linearGradient id="b" x1="0.5" x2="0.5" y2="1" gradientUnits="objectBoundingBox"><stop offset="0" stop-color="#ae8625"/><stop offset="0.286" stop-color="#f7ef8a"/><stop offset="0.729" stop-color="#d2ac47"/><stop offset="1" stop-color="#edc967"/></linearGradient></defs><g transform="translate(-62 -58)"><g transform="translate(0 32)"><g transform="translate(62 82.181)"><rect class="a" width="48" height="48" rx="10" transform="translate(0 -0.181)"/><rect class="b" width="41.218" height="41.218" rx="8" transform="translate(3.435 3.167)"/></g><circle class="c" cx="4" cy="4" r="4" transform="translate(72 93)"/><circle class="c" cx="4" cy="4" r="4" transform="translate(72 111)"/><circle class="c" cx="4" cy="4" r="4" transform="translate(92 93)"/><circle class="c" cx="4" cy="4" r="4" transform="translate(92 111)"/></g><g transform="translate(114 58.181)"><rect class="a" width="48" height="48" rx="10" transform="translate(0 -0.181)"/><rect class="b" width="41.218" height="41.218" rx="8" transform="translate(3.435 3.167)"/></g><circle class="c" cx="4" cy="4" r="4" transform="translate(121.565 71.222) rotate(-45)"/><circle class="c" cx="4" cy="4" r="4" transform="translate(132.565 82.222) rotate(-45)"/><circle class="c" cx="4" cy="4" r="4" transform="translate(144.121 93.778) rotate(-45)"/></g></svg>